<svg viewBox="0 0 100 100" fill="none" xmlns="http://www.w3.org/2000/svg">
<path d="M65.5713 31.3417H58.0292L56.1122 28.262L52.404 22.5111L43.6049 36.1812L39.5511 42.5291L36.2514 47.6829L32.1975 53.9993L28.8664 59.1531L24.8126 65.501H17.3019L21.3558 59.1531L24.6554 53.9993L28.7093 47.6829L32.009 42.5291L48.633 16.666H56.1751L59.8519 22.4169L63.6229 28.262L65.5713 31.3417Z" fill="#828A99"/>
<path d="M87.5062 65.501H31.789L36.2828 59.1531L39.5825 53.9994L43.6364 47.6829L46.9675 42.5291L51.0213 36.1812H68.7138L72.7677 42.5291H54.4781L51.1785 47.6829L47.1246 53.9994L43.8249 59.1531H75.9102L72.6106 53.9994H53.6611L57.8721 47.6829H76.0673L80.1526 53.9994L83.4523 59.1531L87.5062 65.501Z" fill="#828A99"/>
<path d="M22.1414 83.3821L21.2301 81.748H16.2334L17.459 79.4539H20.0359L18.2132 76.0285L14.2851 83.3821H11.1111L16.5791 73.4831C16.862 72.9488 17.3019 72.6974 17.8676 72.6974H18.5275C19.0617 72.6974 19.5017 72.9488 19.7845 73.4831L25.2525 83.3821H22.1414Z" fill="#828A99"/>
<path d="M30.5006 83.3821C29.6835 83.3821 28.9293 83.2564 28.2379 83.005C27.5466 82.7536 26.9495 82.3765 26.4467 81.9051C25.9439 81.4651 25.5354 80.8995 25.2525 80.2395C24.9697 79.5796 24.844 78.8568 24.844 78.0398C24.844 77.2541 24.9697 76.4999 25.2525 75.8714C25.5354 75.2115 25.9439 74.6458 26.4467 74.1744C26.9495 73.7031 27.5466 73.326 28.2379 73.0746C28.9293 72.8232 29.6835 72.6974 30.5006 72.6974H36.22V75.4315H30.312C29.9349 75.4315 29.5892 75.4943 29.275 75.62C28.9293 75.7457 28.6779 75.9343 28.4265 76.1542C28.2065 76.4056 28.018 76.657 27.8923 77.0027C27.7666 77.317 27.7037 77.6627 27.7037 78.0398C27.7037 78.4169 27.7666 78.7625 27.8923 79.1082C28.018 79.4225 28.2065 79.6739 28.4265 79.8939C28.6779 80.1453 28.9293 80.3024 29.275 80.4281C29.5892 80.5538 29.9349 80.6166 30.312 80.6166H33.486V79.1711H30.0292V76.877H36.22V83.3821H30.5006Z" fill="#828A99"/>
<path d="M45.8361 83.3821V75.4315H41.8765V72.6974H52.624V75.4315H48.6959V83.3821H45.8361Z" fill="#828A99"/>
<path d="M57.7149 79.1711V76.877H64.0314V79.1711H57.7149ZM53.881 83.3821V72.6974H64.1257V75.4315H56.7407V80.6166H64.1571V83.3821H53.881Z" fill="#828A99"/>
<path d="M71.165 83.3821C70.3165 83.3821 69.5623 83.2564 68.8709 83.005C68.1796 82.7536 67.5825 82.3765 67.1111 81.9051C66.6083 81.4651 66.1998 80.8995 65.917 80.2395C65.6341 79.5796 65.477 78.8568 65.477 78.0398C65.477 77.2541 65.6341 76.4999 65.917 75.8714C66.1998 75.2115 66.6083 74.6458 67.1111 74.1744C67.5825 73.7031 68.1796 73.326 68.8709 73.0746C69.5623 72.8232 70.3165 72.6974 71.165 72.6974H76.3816V75.4315H70.945C70.5679 75.4315 70.2222 75.4943 69.908 75.62C69.5937 75.7457 69.3109 75.9343 69.0909 76.1542C68.8709 76.4056 68.6824 76.657 68.5567 77.0027C68.431 77.317 68.3681 77.6627 68.3681 78.0398C68.3681 78.4169 68.431 78.7625 68.5567 79.1082C68.6824 79.4225 68.8709 79.6739 69.0909 79.8939C69.3109 80.1453 69.5937 80.3024 69.908 80.4281C70.2222 80.5538 70.5679 80.6166 70.945 80.6166H76.3816V83.3821H71.165Z" fill="#828A99"/>
<path d="M86.0292 83.3821V79.2339H81.8496V76.6256H86.0292V72.6974H88.8889V83.3821H86.0292ZM77.9843 83.3821V72.6974H80.8754V83.3821H77.9843Z" fill="#828A99"/>
</svg>
